<svg width="78" height="75" viewBox="0 0 78 75" fill="none" xmlns="http://www.w3.org/2000/svg">
<path d="M0 0.148727C0 0.28093 0.79322 1.07415 1.76271 1.95551L3.52542 3.54195V36.6369V69.7318L2.11525 71.186L0.705085 72.6403H7.71186H14.7186L13.1763 71.0538L11.678 69.5114L11.5898 50.1216C11.5017 39.5013 11.6339 30.7758 11.8102 30.7758C11.9864 30.7758 17.8915 35.3589 24.8983 40.9555C26.0342 41.8571 27.1437 42.7381 28.2076 43.5828C33.7479 47.9819 38.0503 51.3981 38.383 51.6199C38.9559 51.9725 41.6441 50.0775 52.661 41.3962C60.1085 35.5352 66.4542 30.5996 66.8068 30.4674C67.3356 30.2911 67.4237 33.1555 67.4237 49.9894V69.7318L66.0136 71.186L64.6034 72.6403H71.3017C75.0034 72.6403 78 72.5081 78 72.3318C78 72.1555 77.4712 71.4504 76.8102 70.7453L75.5763 69.5114V46.1996C75.5763 28.1318 75.7085 22.7555 76.1492 22.3589C77.5153 20.9487 76.7661 20.6403 72.3153 20.6403C69.8915 20.6403 67.4237 20.8165 66.8068 21.0369C65.7492 21.4775 54.4678 29.8945 44.1559 37.9589C41.3797 40.1182 38.9119 41.7487 38.6475 41.6606C38.339 41.5284 35.1661 39.0606 31.5085 36.1962C27.8949 33.3318 22.2102 28.8809 18.9492 26.4131C15.6881 23.9013 12.6475 21.4335 12.2508 20.9487C11.6339 20.2877 11.4576 19.3182 11.4576 16.2775C11.4576 14.2064 11.5898 11.4301 11.722 10.1521L12.0305 7.8606H23.4H34.8136V20.5521V33.2436L36.4881 34.8742C37.4136 35.7555 38.4271 36.5047 38.7356 36.5047C39.0441 36.5047 40.1017 35.8877 41.0271 35.1386L42.7458 33.7725V20.8165V7.8606H56.1424H69.5831L69.539 10.5928L69.4508 13.3691L73.3288 13.5013L77.1627 13.6335L77.0305 6.8911L76.8983 0.148727L38.4712 0.0165253C17.3186 -0.0275421 0 0.0165253 0 0.148727Z" fill="#263EB6"/>
<path d="M34.7255 58.5763C34.6373 66.4203 34.417 73.1627 34.1966 73.5593C33.8882 74.3085 34.2407 74.3525 38.956 74.3525C41.7763 74.3525 44.0678 74.3085 44.0678 74.2203C44.0678 74.1763 43.7594 73.339 43.4068 72.3695C42.9221 71.0034 42.7899 67.7864 42.7458 57.6949C42.7458 50.6441 42.6136 44.8271 42.4373 44.8271C42.217 44.8271 41.3797 45.4 40.5424 46.1051L39.0441 47.383L37.4577 46.1932C36.6204 45.5322 35.6949 44.8271 35.3865 44.6508C34.9899 44.4305 34.8136 47.6034 34.7255 58.5763Z" fill="#263EB6"/>
</svg>
